<svg width="470" height="165" viewBox="0 0 470 165" fill="none" xmlns="http://www.w3.org/2000/svg">
  <!-- Card Background: Deep Obsidian -->
  <rect x="1" y="1" width="468" height="163" rx="8" fill="#0d1117" stroke="#30363d" stroke-width="1"/>
  
  <!-- Subtle Top Hairline Highlight -->
  <line x1="1" y1="1" x2="469" y2="1" stroke="#21262d" stroke-width="1" />

  <!-- Header: Icon & Title -->
  <g transform="translate(20, 20)">
    <!-- Icon Container -->
    <rect x="0" y="0" width="30" height="30" rx="6" fill="#161b22" stroke="#30363d" stroke-width="1"/>
    <path d="M3 17.25V21h3.75L17.81 9.94l-3.75-3.75L3 17.25zM20.71 7.04c.39-.39.39-1.02 0-1.41l-2.34-2.34c-.39-.39-1.02-.39-1.41 0l-1.83 1.83 3.75 3.75 1.83-1.83z" fill="#c9d1d9" transform="translate(3, 3) scale(1)"/>
    
    <!-- Title -->
    <text x="40" y="20" font-family="-apple-system, BlinkMacSystemFont, 'Segoe UI', Inter, sans-serif" font-size="17" font-weight="600" fill="#f0f6fc">excalihub</text>
  </g>

  <!-- Badge Pill -->
  <g transform="translate(319.5, 22)">
    <rect x="0" y="0" width="128.5" height="22" rx="11" fill="#161b22" stroke="#30363d" stroke-width="1"/>
    <text x="64.2" y="14.5" font-family="-apple-system, BlinkMacSystemFont, 'Segoe UI', Inter, sans-serif" font-size="10.5" font-weight="500" fill="#8b949e" text-anchor="middle">Browser Extension</text>
  </g>

  <!-- Description -->
  <text x="22" y="78" font-family="-apple-system, BlinkMacSystemFont, 'Segoe UI', Inter, sans-serif" font-size="12.5" fill="#8b949e" letter-spacing="-0.1">Chrome extension (MV3) syncing Excalidraw diagrams directly</text>
  <text x="22" y="97" font-family="-apple-system, BlinkMacSystemFont, 'Segoe UI', Inter, sans-serif" font-size="12.5" fill="#8b949e" letter-spacing="-0.1">to private GitHub repositories with an embedded sidebar drawer.</text>

  <!-- Tags -->
  <g transform="translate(22, 122)">
    <g transform="translate(0, 0)">
      <rect width="90.0" height="22" rx="4" fill="#161b22" stroke="#21262d" stroke-width="1"/>
      <text x="45.0" y="14.5" font-family="ui-monospace, monospace" font-size="10.5" font-weight="500" fill="#7d8590" text-anchor="middle">JavaScript</text>
    </g><g transform="translate(98.0, 0)">
      <rect width="90.0" height="22" rx="4" fill="#161b22" stroke="#21262d" stroke-width="1"/>
      <text x="45.0" y="14.5" font-family="ui-monospace, monospace" font-size="10.5" font-weight="500" fill="#7d8590" text-anchor="middle">Chrome MV3</text>
    </g><g transform="translate(196.0, 0)">
      <rect width="90.0" height="22" rx="4" fill="#161b22" stroke="#21262d" stroke-width="1"/>
      <text x="45.0" y="14.5" font-family="ui-monospace, monospace" font-size="10.5" font-weight="500" fill="#7d8590" text-anchor="middle">GitHub API</text>
    </g>
  </g>
</svg>