<svg width="720" height="135" viewBox="0 0 720 135" fill="none" xmlns="http://www.w3.org/2000/svg">
  <defs>
    <linearGradient id="bg_gitdesk" x1="0%" y1="0%" x2="100%" y2="100%">
      <stop offset="0%" stop-color="#11161d" />
      <stop offset="100%" stop-color="#0a0d12" />
    </linearGradient>
    <linearGradient id="bezel_gitdesk" x1="0%" y1="0%" x2="100%" y2="0%">
      <stop offset="0%" stop-color="#ffffff" stop-opacity="0.05" />
      <stop offset="30%" stop-color="#ffffff" stop-opacity="0.15" />
      <stop offset="70%" stop-color="#ffffff" stop-opacity="0.08" />
      <stop offset="100%" stop-color="#ffffff" stop-opacity="0.03" />
    </linearGradient>
  </defs>

  <!-- Card Base Frame -->
  <rect x="1" y="1" width="718" height="133" rx="10" fill="url(#bg_gitdesk)" stroke="#262c36" stroke-width="1"/>
  <path d="M10 1H710" stroke="url(#bezel_gitdesk)" stroke-width="1" stroke-linecap="round" />

  <!-- HEADER: Icon, Title & Badge -->
  <g transform="translate(24, 18)">
    <rect x="0" y="0" width="30" height="30" rx="6" fill="#161b22" stroke="#2d333b" stroke-width="1"/>
    <path d="M12 1L3 5v6c0 5.55 3.84 10.74 9 12 5.16-1.26 9-6.45 9-12V5l-9-4zm-1 14.5l-3.5-3.5 1.41-1.41L11 12.67l5.09-5.09 1.41 1.41L11 15.5z" fill="#c9d1d9" transform="translate(3, 3) scale(1)"/>
    <text x="40" y="21" font-family="-apple-system, BlinkMacSystemFont, 'SF Pro Display', 'Segoe UI', Inter, sans-serif" font-size="18" font-weight="600" fill="#f0f6fc" letter-spacing="-0.2">gitdesk</text>
    <path d="123 13L128 8M128 8H124M128 8V12" stroke="#484f58" stroke-width="1.2" stroke-linecap="round" stroke-linejoin="round"/>
  </g>

  <!-- Category Badge -->
  <g transform="translate(614.8, 22)">
    <rect x="0" y="0" width="81.2" height="22" rx="11" fill="#161b22" stroke="#2d333b" stroke-width="1"/>
    <text x="40.6" y="15" font-family="-apple-system, BlinkMacSystemFont, 'SF Pro Text', 'Segoe UI', Inter, sans-serif" font-size="11" font-weight="500" fill="#8b949e" text-anchor="middle">DevSecOps</text>
  </g>

  <!-- Description -->
  <text x="24" y="72" font-family="-apple-system, BlinkMacSystemFont, 'SF Pro Text', 'Segoe UI', Inter, sans-serif" font-size="13.5" fill="#8b949e" letter-spacing="-0.1">AI-native developer security partner with local vulnerability and secret detection before commit/push, plus Git Worktrees.</text>

  <!-- Tags -->
  <g transform="translate(24, 94)">
    <g transform="translate(0, 0)">
      <rect width="64.4" height="22" rx="4" fill="#161b22" stroke="#262c36" stroke-width="1"/>
      <text x="32.2" y="15" font-family="ui-monospace, monospace" font-size="11" font-weight="500" fill="#7d8590" text-anchor="middle">Python</text>
    </g><g transform="translate(72.4, 0)">
      <rect width="94.0" height="22" rx="4" fill="#161b22" stroke="#262c36" stroke-width="1"/>
      <text x="47.0" y="15" font-family="ui-monospace, monospace" font-size="11" font-weight="500" fill="#7d8590" text-anchor="middle">TypeScript</text>
    </g><g transform="translate(174.4, 0)">
      <rect width="79.2" height="22" rx="4" fill="#161b22" stroke="#262c36" stroke-width="1"/>
      <text x="39.6" y="15" font-family="ui-monospace, monospace" font-size="11" font-weight="500" fill="#7d8590" text-anchor="middle">DevTools</text>
    </g><g transform="translate(261.6, 0)">
      <rect width="79.2" height="22" rx="4" fill="#161b22" stroke="#262c36" stroke-width="1"/>
      <text x="39.6" y="15" font-family="ui-monospace, monospace" font-size="11" font-weight="500" fill="#7d8590" text-anchor="middle">Security</text>
    </g>
  </g>
</svg>